<svg xmlns="http://www.w3.org/2000/svg" width="135.9" height="136" viewBox="0 0 135.9 136"><title>footer-logo</title><path d="M103.65,90.93,50.46,37.74,85.87,2.4c-5.21-1.33-12.28.13-17.9.13A65.42,65.42,0,1,0,133.37,68c0-2.2,2.15-6.66,1.94-8.8Z" transform="translate(0)" fill="#fff"/><path d="M46.87,41.34s-6.26,5.78.19,13.67c2.53,3.1,8.94,9.75,15.79,16.69C46.68,79.44,25,90.26,34.1,99.37s22.66-9.82,32.55-23.83C76.06,85,85.13,93.88,85.13,93.88c9,7.5,14.94.65,14.94.65ZM43.24,96a3.63,3.63,0,0,1-4.8-.21,2.92,2.92,0,0,1-.08-4.12l.29-.26a3.63,3.63,0,0,1,4.8.21,2.89,2.89,0,0,1,.09,4.1h0A1.86,1.86,0,0,1,43.24,96Zm50.85-1.69-46.94-47L47.36,45,96.48,94.15Z" transform="translate(0)" fill="#001837"/><path d="M135.06,39.12c-11.49,0-11.65-10.88-11.65-11.35a.84.84,0,0,0-1.68,0c0,.47-.17,11.35-11.65,11.35a.84.84,0,0,0,0,1.68c11.48,0,11.65,10.89,11.65,11.35a.84.84,0,1,0,1.68,0c0-.46.16-11.35,11.65-11.35a.84.84,0,0,0,0-1.68Z" transform="translate(0)" fill="#f9a31a"/><path d="M103.39,49.19c-5.18,0-5.25-4.91-5.25-5.12a.38.38,0,0,0-.76,0c0,.21-.08,5.12-5.26,5.12a.38.38,0,1,0,0,.76h0c5.18,0,5.26,4.91,5.26,5.12a.38.38,0,0,0,.76,0c0-.21.07-5.12,5.25-5.12a.38.38,0,1,0,0-.76Z" transform="translate(0)" fill="#f9a31a"/><path d="M116.16,15.27A3,3,0,0,1,113,12.39h0v-.12a.22.22,0,0,0-.16-.27h0a.23.23,0,0,0-.28.17h0v.1a3,3,0,0,1-3,3h-.12a.23.23,0,0,0-.26.2.24.24,0,0,0,.17.25h.09a3,3,0,0,1,3.12,2.88h0v.12a.22.22,0,0,0,.22.22h0a.22.22,0,0,0,.22-.22h0a3,3,0,0,1,3-3h.12a.24.24,0,0,0,.28-.17h0a.24.24,0,0,0-.18-.27Z" transform="translate(0)" fill="#f9a31a"/><path d="M135.31,59.15l-5.44,5.48c.06,1.1.09,2.2.09,3.32A62,62,0,1,1,81,7.32L85.87,2.4A67.81,67.81,0,0,0,68,0h0A68,68,0,0,0,0,68H0a68,68,0,0,0,68,68h0a68,68,0,0,0,67.87-68h0A67.09,67.09,0,0,0,135.31,59.15Z" transform="translate(0)" fill="#fff"/></svg>