<svg xmlns="http://www.w3.org/2000/svg" width="387.75" height="136" viewBox="0 0 387.75 136"><title>logo-white (1)</title><path d="M103.65,90.93,50.46,37.74,85.87,2.4c-5.21-1.33-12.28.13-17.9.13A65.42,65.42,0,1,0,133.37,68c0-2.2,2.15-6.66,1.94-8.8Z" transform="translate(0)" fill="#fff"/><path d="M46.87,41.34s-6.26,5.78.19,13.67c2.53,3.1,8.94,9.75,15.79,16.69C46.68,79.44,25,90.26,34.1,99.37s22.66-9.82,32.55-23.83C76.06,85,85.13,93.88,85.13,93.88c9,7.5,14.94.65,14.94.65ZM43.24,96a3.63,3.63,0,0,1-4.8-.21,2.92,2.92,0,0,1-.08-4.12l.29-.26a3.63,3.63,0,0,1,4.8.21,2.89,2.89,0,0,1,.09,4.1h0A1.86,1.86,0,0,1,43.24,96Zm50.85-1.69-46.94-47L47.36,45,96.48,94.15Z" transform="translate(0)" fill="#001837"/><path d="M135.06,39.12c-11.49,0-11.65-10.88-11.65-11.35a.84.84,0,0,0-1.68,0c0,.47-.17,11.35-11.65,11.35a.84.84,0,0,0,0,1.68c11.48,0,11.65,10.89,11.65,11.35a.84.84,0,1,0,1.68,0c0-.46.16-11.35,11.65-11.35a.84.84,0,0,0,0-1.68Z" transform="translate(0)" fill="#f9a31a"/><path d="M103.39,49.19c-5.18,0-5.25-4.91-5.25-5.12a.38.38,0,0,0-.76,0c0,.21-.08,5.12-5.26,5.12a.38.38,0,1,0,0,.76h0c5.18,0,5.26,4.91,5.26,5.12a.38.38,0,0,0,.76,0c0-.21.07-5.12,5.25-5.12a.38.38,0,1,0,0-.76Z" transform="translate(0)" fill="#f9a31a"/><path d="M116.16,15.27A3,3,0,0,1,113,12.39h0v-.12a.22.22,0,0,0-.16-.27h0a.23.23,0,0,0-.28.17h0v.1a3,3,0,0,1-3,3h-.12a.23.23,0,0,0-.26.2.24.24,0,0,0,.17.25h.09a3,3,0,0,1,3.12,2.88h0v.12a.22.22,0,0,0,.22.22h0a.22.22,0,0,0,.22-.22h0a3,3,0,0,1,3-3h.12a.24.24,0,0,0,.28-.17h0a.24.24,0,0,0-.18-.27Z" transform="translate(0)" fill="#f9a31a"/><path d="M135.31,59.15l-5.44,5.48c.06,1.1.09,2.2.09,3.32A62,62,0,1,1,81,7.32L85.87,2.4A67.81,67.81,0,0,0,68,0h0A68,68,0,0,0,0,68H0a68,68,0,0,0,68,68h0a68,68,0,0,0,67.87-68h0A67.09,67.09,0,0,0,135.31,59.15Z" transform="translate(0)" fill="#fff"/><path d="M160.43,91.85a4.16,4.16,0,0,1-4.05-4,4.87,4.87,0,0,1,1.12-3.08l15.23-20.62,5,7.27-13.5,18.3A4.47,4.47,0,0,1,160.43,91.85Zm.67-53.1a4.5,4.5,0,0,1,3.68,2l33,43.88a4.49,4.49,0,0,1,.9,2.77,4,4,0,0,1-1.5,3.3,4.8,4.8,0,0,1-3,1.2,4.5,4.5,0,0,1-3.68-1.95L157.5,46a4.31,4.31,0,0,1,.49-6A4.59,4.59,0,0,1,161.1,38.75Zm33.45.15a3.9,3.9,0,0,1,3,1.35,4.19,4.19,0,0,1,1.23,2.85,4.37,4.37,0,0,1-1,2.7L182.7,65.68l-5.1-7,13.28-17.62A4.51,4.51,0,0,1,194.55,38.9Z" transform="translate(0)" fill="#fff"/><path d="M223.65,50.6a27.69,27.69,0,0,1,7.47.9A12.12,12.12,0,0,1,236.07,54a5.06,5.06,0,0,1,1.76,3.86,4.86,4.86,0,0,1-.9,2.81A3,3,0,0,1,234.3,62a5.12,5.12,0,0,1-2-.33,5.28,5.28,0,0,1-1.39-.87,7.94,7.94,0,0,0-1.43-1,6.73,6.73,0,0,0-2.28-.71,14.73,14.73,0,0,0-2.29-.27,12.11,12.11,0,0,0-6.49,1.65A11,11,0,0,0,214.35,65a14.12,14.12,0,0,0-1.42,6.48,13.8,13.8,0,0,0,1.46,6.42,11.55,11.55,0,0,0,4.05,4.46,10.85,10.85,0,0,0,6,1.65,19.94,19.94,0,0,0,3.23-.23,8,8,0,0,0,2.25-.67,13.6,13.6,0,0,0,1.87-1.28,3.86,3.86,0,0,1,2.48-.67,3.7,3.7,0,0,1,3,1.24,4.51,4.51,0,0,1,1.05,3,4.31,4.31,0,0,1-2.1,3.42,16.89,16.89,0,0,1-5.51,2.47,27.64,27.64,0,0,1-7.39.94A18.86,18.86,0,0,1,213,89.49,18.29,18.29,0,0,1,206.29,82a23.4,23.4,0,0,1-2.36-10.58,22.6,22.6,0,0,1,2.51-10.83,18.58,18.58,0,0,1,7-7.35A19.51,19.51,0,0,1,223.65,50.6Z" transform="translate(0)" fill="#fff"/><path d="M254.55,86.9A4.48,4.48,0,0,1,250,91.48a4.23,4.23,0,0,1-3.15-1.31,4.53,4.53,0,0,1-1.28-3.27V40.55A4.49,4.49,0,0,1,250.13,36a4.21,4.21,0,0,1,3.19,1.31,4.59,4.59,0,0,1,1.23,3.26Z" transform="translate(0)" fill="#fff"/><path d="M283.2,92.23a22.08,22.08,0,0,1-11.06-2.66,18.49,18.49,0,0,1-7.2-7.24A21.2,21.2,0,0,1,262.43,72a22.67,22.67,0,0,1,2.74-11.51,19.3,19.3,0,0,1,7.16-7.32,18.47,18.47,0,0,1,9.37-2.55,17.07,17.07,0,0,1,7.24,1.58,19.81,19.81,0,0,1,6,4.31,20.94,20.94,0,0,1,4.16,6.34,19.19,19.19,0,0,1,1.54,7.65,3.85,3.85,0,0,1-1.43,2.92,4.78,4.78,0,0,1-3.15,1.13H267.45L265.2,67h27.53l-1.65,1.5v-2a6.81,6.81,0,0,0-1.54-3.9,9.87,9.87,0,0,0-3.45-2.73,9.76,9.76,0,0,0-4.39-1,14.21,14.21,0,0,0-4.2.6,8,8,0,0,0-3.37,2,9.8,9.8,0,0,0-2.25,3.82,19,19,0,0,0-.83,6.08,13.14,13.14,0,0,0,1.69,6.86,11.51,11.51,0,0,0,10,5.74,17.47,17.47,0,0,0,4.43-.45,9.7,9.7,0,0,0,2.66-1.09c.68-.42,1.29-.79,1.84-1.09a5.71,5.71,0,0,1,2.55-.67,3.76,3.76,0,0,1,3.82,3.75A4.67,4.67,0,0,1,296,88.1,17.26,17.26,0,0,1,290.48,91,21.71,21.71,0,0,1,283.2,92.23Z" transform="translate(0)" fill="#fff"/><path d="M327.45,92.23a22.06,22.06,0,0,1-11.06-2.66,18.42,18.42,0,0,1-7.2-7.24A21.09,21.09,0,0,1,306.68,72a22.67,22.67,0,0,1,2.74-11.51,19.3,19.3,0,0,1,7.16-7.32A18.47,18.47,0,0,1,326,50.6a17.1,17.1,0,0,1,7.24,1.58,19.93,19.93,0,0,1,6,4.31,20.94,20.94,0,0,1,4.16,6.34,19.36,19.36,0,0,1,1.54,7.65,3.85,3.85,0,0,1-1.43,2.92,4.78,4.78,0,0,1-3.15,1.13H311.7L309.45,67H337l-1.65,1.5v-2a6.88,6.88,0,0,0-1.54-3.9,10.06,10.06,0,0,0-3.45-2.73,9.79,9.79,0,0,0-4.39-1,14.21,14.21,0,0,0-4.2.6,8,8,0,0,0-3.37,2,9.8,9.8,0,0,0-2.25,3.82,19,19,0,0,0-.83,6.08A13.14,13.14,0,0,0,317,78.24,11.51,11.51,0,0,0,327,84a17.47,17.47,0,0,0,4.43-.45,9.7,9.7,0,0,0,2.66-1.09c.68-.42,1.29-.79,1.84-1.09a5.71,5.71,0,0,1,2.55-.67,3.77,3.77,0,0,1,3.82,3.75,4.67,4.67,0,0,1-2.1,3.67A17.26,17.26,0,0,1,334.73,91,21.71,21.71,0,0,1,327.45,92.23Z" transform="translate(0)" fill="#fff"/><path d="M374.25,50.6q5.55,0,8.44,2.33a11.87,11.87,0,0,1,4,6.19,31.77,31.77,0,0,1,1.08,8.58V86.9a4.52,4.52,0,0,1-1.27,3.27,4.62,4.62,0,0,1-6.45,0,4.53,4.53,0,0,1-1.28-3.27V67.7a14.74,14.74,0,0,0-.63-4.46,6.22,6.22,0,0,0-2.29-3.19,8,8,0,0,0-4.73-1.2,9.92,9.92,0,0,0-5.06,1.2,8.18,8.18,0,0,0-3.15,3.19,9.2,9.2,0,0,0-1.09,4.46V86.9a4.52,4.52,0,0,1-1.27,3.27,4.62,4.62,0,0,1-6.45,0,4.53,4.53,0,0,1-1.28-3.27v-31a4.49,4.49,0,0,1,1.28-3.26,4.6,4.6,0,0,1,6.45,0,4.48,4.48,0,0,1,1.27,3.26v3.22l-1.12-.22a15,15,0,0,1,1.95-2.74,19,19,0,0,1,3-2.74,15.4,15.4,0,0,1,3.9-2.06A13.87,13.87,0,0,1,374.25,50.6Z" transform="translate(0)" fill="#fff"/></svg>