<svg xmlns="http://www.w3.org/2000/svg" width="388.11" height="136" viewBox="0 0 388.11 136"><title>logo</title><path d="M103.65,90.93,50.46,37.74,85.87,2.4c-5.21-1.33-12.28.13-17.9.13A65.42,65.42,0,1,0,133.37,68c0-2.2,2.15-6.66,1.94-8.8Z" transform="translate(0)" fill="#001837"/><path d="M46.87,41.34s-6.26,5.78.19,13.67c2.53,3.1,8.94,9.75,15.79,16.69C46.68,79.44,25,90.26,34.1,99.37s22.66-9.82,32.55-23.83C76.06,85,85.13,93.88,85.13,93.88c9,7.5,14.94.65,14.94.65ZM43.24,96a3.63,3.63,0,0,1-4.8-.21,2.92,2.92,0,0,1-.08-4.12l.29-.26a3.63,3.63,0,0,1,4.8.21,2.89,2.89,0,0,1,.09,4.1h0A1.86,1.86,0,0,1,43.24,96Zm50.85-1.69-46.94-47L47.36,45,96.48,94.15Z" transform="translate(0)" fill="#fff"/><path d="M135.06,39.12c-11.49,0-11.65-10.88-11.65-11.35a.84.84,0,0,0-1.68,0c0,.47-.17,11.35-11.65,11.35a.84.84,0,0,0,0,1.68c11.48,0,11.65,10.89,11.65,11.35a.84.84,0,1,0,1.68,0c0-.46.16-11.35,11.65-11.35a.84.84,0,0,0,0-1.68Z" transform="translate(0)" fill="#f9a31a"/><path d="M103.39,49.19c-5.18,0-5.25-4.91-5.25-5.12a.38.38,0,0,0-.76,0c0,.21-.08,5.12-5.26,5.12a.38.38,0,1,0,0,.76h0c5.18,0,5.26,4.91,5.26,5.12a.38.38,0,0,0,.76,0c0-.21.07-5.12,5.25-5.12a.38.38,0,1,0,0-.76Z" transform="translate(0)" fill="#f9a31a"/><path d="M116.16,15.27A3,3,0,0,1,113,12.39h0v-.12a.22.22,0,0,0-.16-.27h0a.23.23,0,0,0-.28.17h0v.1a3,3,0,0,1-3,3h-.12a.23.23,0,0,0-.26.2.24.24,0,0,0,.17.25h.09a3,3,0,0,1,3.12,2.88h0v.12a.22.22,0,0,0,.22.22h0a.22.22,0,0,0,.22-.22h0a3,3,0,0,1,3-3h.12a.24.24,0,0,0,.28-.17h0a.24.24,0,0,0-.18-.27Z" transform="translate(0)" fill="#f9a31a"/><path d="M135.31,59.15l-5.44,5.48c.06,1.1.09,2.2.09,3.32A62,62,0,1,1,81,7.32L85.87,2.4A67.81,67.81,0,0,0,68,0h0A68,68,0,0,0,0,68H0a68,68,0,0,0,68,68h0a68,68,0,0,0,67.87-68h0A67.09,67.09,0,0,0,135.31,59.15Z" transform="translate(0)" fill="#001837"/><path d="M160.79,91.38a4.18,4.18,0,0,1-4-4,4.85,4.85,0,0,1,1.12-3.07L173.09,63.7,178,71l-13.5,18.3A4.48,4.48,0,0,1,160.79,91.38Zm.67-53.11a4.5,4.5,0,0,1,3.68,1.95l33,43.88a4.51,4.51,0,0,1,.9,2.78,4,4,0,0,1-1.5,3.29,4.76,4.76,0,0,1-3,1.21,4.49,4.49,0,0,1-3.68-2l-33-43.87a4.31,4.31,0,0,1,.49-6A4.57,4.57,0,0,1,161.46,38.27Zm33.45.15a3.87,3.87,0,0,1,3,1.35,4.18,4.18,0,0,1,1.24,2.85,4.35,4.35,0,0,1-1,2.7L183.06,65.2l-5.1-7L191.24,40.6A4.51,4.51,0,0,1,194.91,38.42Z" transform="translate(0)" fill="#001837"/><path d="M224,50.12a27.56,27.56,0,0,1,7.46.9,12,12,0,0,1,4.95,2.52,5,5,0,0,1,1.77,3.86,4.86,4.86,0,0,1-.9,2.81,3,3,0,0,1-2.63,1.31,5.2,5.2,0,0,1-2-.33,5.39,5.39,0,0,1-1.38-.87,8.49,8.49,0,0,0-1.43-1,6.72,6.72,0,0,0-2.29-.71,14.5,14.5,0,0,0-2.28-.27A12.17,12.17,0,0,0,218.8,60a11,11,0,0,0-4.09,4.47A14.15,14.15,0,0,0,213.29,71a13.65,13.65,0,0,0,1.46,6.42,11.4,11.4,0,0,0,4.05,4.46,10.83,10.83,0,0,0,6,1.65,19.94,19.94,0,0,0,3.23-.23,7.69,7.69,0,0,0,2.25-.67,14.52,14.52,0,0,0,1.87-1.27,3.86,3.86,0,0,1,2.48-.68,3.7,3.7,0,0,1,3,1.24,4.51,4.51,0,0,1,1,3,4.31,4.31,0,0,1-2.1,3.42A16.86,16.86,0,0,1,231,90.81a27.52,27.52,0,0,1-7.38.94A18.86,18.86,0,0,1,213.36,89a18.22,18.22,0,0,1-6.71-7.46A23.24,23.24,0,0,1,204.29,71a22.52,22.52,0,0,1,2.51-10.83,18.55,18.55,0,0,1,7-7.35A19.57,19.57,0,0,1,224,50.12Z" transform="translate(0)" fill="#001837"/><path d="M254.91,86.42A4.48,4.48,0,0,1,250.34,91a4.23,4.23,0,0,1-3.15-1.31,4.47,4.47,0,0,1-1.28-3.27V40.07a4.48,4.48,0,0,1,4.58-4.57,4.18,4.18,0,0,1,3.18,1.31,4.56,4.56,0,0,1,1.24,3.26Z" transform="translate(0)" fill="#001837"/><path d="M283.56,91.75a22.06,22.06,0,0,1-11.06-2.66,18.36,18.36,0,0,1-7.2-7.24,21.09,21.09,0,0,1-2.51-10.35A22.77,22.77,0,0,1,265.52,60a19.47,19.47,0,0,1,7.17-7.32,18.57,18.57,0,0,1,9.37-2.55,17.1,17.1,0,0,1,7.24,1.58,20.06,20.06,0,0,1,6,4.31,21.13,21.13,0,0,1,4.16,6.34A19.36,19.36,0,0,1,301,70a3.85,3.85,0,0,1-1.43,2.92,4.78,4.78,0,0,1-3.15,1.13H267.81l-2.25-7.5h27.53l-1.65,1.5V66a7,7,0,0,0-1.54-3.9,10.18,10.18,0,0,0-3.45-2.73,9.79,9.79,0,0,0-4.39-1,14.21,14.21,0,0,0-4.2.6,8.14,8.14,0,0,0-3.37,2,9.88,9.88,0,0,0-2.25,3.82,19,19,0,0,0-.83,6.08,13,13,0,0,0,1.69,6.86A11.44,11.44,0,0,0,277.45,82a11.61,11.61,0,0,0,5.66,1.46,17.47,17.47,0,0,0,4.43-.45A9.83,9.83,0,0,0,290.2,82c.67-.42,1.29-.79,1.84-1.08a5.6,5.6,0,0,1,2.55-.68A3.79,3.79,0,0,1,298.41,84a4.69,4.69,0,0,1-2.1,3.68,17.26,17.26,0,0,1-5.47,2.88A21.71,21.71,0,0,1,283.56,91.75Z" transform="translate(0)" fill="#001837"/><path d="M327.81,91.75a22.06,22.06,0,0,1-11.06-2.66,18.36,18.36,0,0,1-7.2-7.24A21.09,21.09,0,0,1,307,71.5,22.77,22.77,0,0,1,309.77,60a19.4,19.4,0,0,1,7.17-7.32,18.54,18.54,0,0,1,9.37-2.55,17.1,17.1,0,0,1,7.24,1.58,19.89,19.89,0,0,1,6,4.31,21.15,21.15,0,0,1,4.17,6.34A19.36,19.36,0,0,1,345.29,70a3.88,3.88,0,0,1-1.43,2.92,4.78,4.78,0,0,1-3.15,1.13H312.06l-2.25-7.5h27.52l-1.64,1.5V66a7,7,0,0,0-1.54-3.9,10.18,10.18,0,0,0-3.45-2.73,9.79,9.79,0,0,0-4.39-1,14.21,14.21,0,0,0-4.2.6,8.08,8.08,0,0,0-3.37,2,9.88,9.88,0,0,0-2.25,3.82,18.74,18.74,0,0,0-.83,6.08,13,13,0,0,0,1.69,6.86A11.44,11.44,0,0,0,321.7,82a11.61,11.61,0,0,0,5.66,1.46,17.53,17.53,0,0,0,4.43-.45A10,10,0,0,0,334.45,82c.67-.42,1.28-.79,1.84-1.08a5.6,5.6,0,0,1,2.54-.68A3.79,3.79,0,0,1,342.66,84a4.69,4.69,0,0,1-2.1,3.68,17.33,17.33,0,0,1-5.48,2.88A21.65,21.65,0,0,1,327.81,91.75Z" transform="translate(0)" fill="#001837"/><path d="M374.61,50.12q5.55,0,8.44,2.33a11.8,11.8,0,0,1,4,6.19,31.37,31.37,0,0,1,1.09,8.58v19.2a4.51,4.51,0,0,1-1.28,3.27,4.62,4.62,0,0,1-6.45,0,4.5,4.5,0,0,1-1.27-3.27V67.22a14.43,14.43,0,0,0-.64-4.46,6.25,6.25,0,0,0-2.28-3.19,8.06,8.06,0,0,0-4.73-1.2,10,10,0,0,0-5.06,1.2,8.24,8.24,0,0,0-3.15,3.19,9.09,9.09,0,0,0-1.09,4.46v19.2a4.51,4.51,0,0,1-1.28,3.27,4.61,4.61,0,0,1-6.44,0,4.47,4.47,0,0,1-1.28-3.27v-31a4.45,4.45,0,0,1,1.28-3.26,4.59,4.59,0,0,1,6.44,0,4.49,4.49,0,0,1,1.28,3.26v3.22L361,58.45A14.54,14.54,0,0,1,363,55.71,18.56,18.56,0,0,1,366,53a15.48,15.48,0,0,1,3.89-2.06A13.93,13.93,0,0,1,374.61,50.12Z" transform="translate(0)" fill="#001837"/></svg>